<svg xmlns="http://www.w3.org/2000/svg" width="16" height="17"><path fill="#f26724" d="M14.875 7.708A.708.708 0 0114.167 7a7.39 7.39 0 00-2.178-5.26.708.708 0 111.001-1A8.796 8.796 0 0115.583 7a.708.708 0 01-.708.709zm-14.167 0A.709.709 0 010 7C0 4.635.92 2.41 2.593.739A.708.708 0 113.595 1.74 7.39 7.39 0 001.417 7a.709.709 0 01-.709.708zm13.727 4.272a4.744 4.744 0 01-1.685-3.63V6.375c0-2.493-1.852-4.556-4.25-4.902V.708a.708.708 0 10-1.417 0v.765a4.962 4.962 0 00-4.25 4.902V8.35a4.75 4.75 0 01-1.691 3.636 1.241 1.241 0 00.806 2.181h11.687a1.24 1.24 0 00.8-2.187zM7.792 17a2.66 2.66 0 002.602-2.125H5.19A2.66 2.66 0 007.792 17z"/></svg>