<svg xmlns="http://www.w3.org/2000/svg" width="62" height="62"><path fill="#f26724" d="M43 38.586L41.914 37.5 54.5 24.914 55.586 26zM46 60H8V14h38v11.586L41.586 30H12v2h27.586l-2 2H12v2h23.586l-6.293 6.293a.98.98 0 00-.176.265l-.011-.006-3 6a1 1 0 00.188 1.154l.292.294-2.293 2.293 1.414 1.414L28 51.414l.293.293a1 1 0 001.154.188l6-3-.006-.011a.98.98 0 00.265-.176L46 38.414zM2 56V7c0-2.757 2.243-5 5-5a5.01 5.01 0 014.899 4H9C7.346 6 6 7.346 6 9v47zm6-44.101V9c0-.551.449-1 1-1h2.899A5.016 5.016 0 018 11.899zM47 2c2.757 0 5 2.243 5 5s-2.243 5-5 5H11.89a6.977 6.977 0 000-10zM31.414 43L38 36.414 41.586 40 35 46.586zm-3.197 5.803l2.057-4.115 3.038 3.038-4.115 2.057zM52 22.414l1.086 1.086L40.5 36.086 39.414 35zm3.671-3.671A2.52 2.52 0 0157.464 18 2.54 2.54 0 0160 20.536a2.52 2.52 0 01-.743 1.793L57 24.586 53.414 21zM62 20.536A4.541 4.541 0 0057.464 16a4.504 4.504 0 00-3.207 1.329L48 23.586V13.92c3.387-.488 6-3.401 6-6.92 0-3.86-3.14-7-7-7H7C3.14 0 0 3.14 0 7v50a1 1 0 001 1h5v3a1 1 0 001 1h40a1 1 0 001-1V36.414L58.734 25.68a13.399 13.399 0 01-3.683 6.855l-4.757 4.757 1.414 1.414 4.757-4.757c2.838-2.838 4.425-6.586 4.518-10.585A4.484 4.484 0 0062 20.536z"/><path fill="#f26724" d="M12 18h30v2H12zm0 4h30v2H12zm0 4h30v2H12zm0 24h11v2H12zm0 4h30v2H12z"/></svg>