<svg xmlns="http://www.w3.org/2000/svg" width="16" height="16"><path fill="#fff" d="M6.089 8.463a.348.348 0 00-.348-.348H4.526a.348.348 0 00-.348.348v1.215c0 .192.156.348.348.348H5.74a.348.348 0 00.348-.348zm3.036 0a.348.348 0 00-.347-.348H7.562a.348.348 0 00-.348.348v1.215c0 .192.156.348.348.348h1.216a.348.348 0 00.347-.348zm3.037 0a.348.348 0 00-.348-.348H10.6a.348.348 0 00-.348.348v1.215c0 .192.156.348.348.348h1.215a.348.348 0 00.348-.348zM6.089 11.5a.348.348 0 00-.348-.348H4.526a.348.348 0 00-.348.348v1.215c0 .192.156.348.348.348H5.74a.348.348 0 00.348-.348zm3.036 0a.348.348 0 00-.347-.348H7.562a.348.348 0 00-.348.348v1.215c0 .192.156.348.348.348h1.216a.348.348 0 00.347-.348zm3.037 0a.348.348 0 00-.348-.348H10.6a.348.348 0 00-.348.348v1.215c0 .192.156.348.348.348h1.215a.348.348 0 00.348-.348z"/><path fill="#fff" d="M13.89 13.28a.595.595 0 01-.595.594H3.018a.595.595 0 01-.594-.594V7.662c0-.328.266-.594.594-.594h10.277c.329 0 .595.266.595.594zm.445-11.572v1.856c0 .838-.68 1.514-1.52 1.514h-.957a1.523 1.523 0 01-1.529-1.514V1.7H6.01v1.863c0 .838-.689 1.514-1.528 1.514h-.958a1.516 1.516 0 01-1.519-1.514V1.708A1.381 1.381 0 00.67 3.082v10.875c0 .76.615 1.383 1.375 1.383h12.25c.758 0 1.375-.625 1.375-1.383V3.082c0-.745-.602-1.352-1.335-1.374z"/><path fill="#fff" d="M3.52 4.083h.949a.52.52 0 00.52-.52V.52A.52.52 0 004.47 0h-.95A.52.52 0 003 .52v3.043c0 .288.233.52.52.52zm8.325 0h.948a.52.52 0 00.52-.52V.52a.52.52 0 00-.52-.521h-.948a.52.52 0 00-.52.52v3.043c0 .288.233.52.52.52z"/></svg>