<svg xmlns="http://www.w3.org/2000/svg" width="19" height="19" viewBox="0 0 19 19"><g><g><g><path fill="#d5d5d5" d="M11.148 5.858a1.425 1.425 0 0 1-1.005.388 1.44 1.44 0 0 1-1.01-.388 1.239 1.239 0 0 1-.42-.94c0-.367.142-.683.42-.944a1.43 1.43 0 0 1 1.01-.392c.392 0 .727.13 1.005.392.278.261.418.577.418.944 0 .368-.14.682-.418.94zm.106 8.578c-.48.19-.861.333-1.148.433-.285.099-.617.149-.995.149-.58 0-1.032-.142-1.354-.425a1.372 1.372 0 0 1-.482-1.078c0-.17.012-.343.036-.52.024-.177.063-.375.116-.599l.6-2.12c.053-.203.098-.396.135-.576.036-.181.053-.348.053-.499 0-.27-.056-.459-.167-.565-.113-.107-.325-.159-.64-.159-.156 0-.315.023-.478.071-.162.05-.302.095-.417.139l.158-.653c.393-.16.77-.297 1.128-.41a3.332 3.332 0 0 1 1.017-.173c.577 0 1.021.14 1.334.418.312.279.469.64.469 1.085 0 .092-.011.255-.032.487a3.256 3.256 0 0 1-.12.64l-.597 2.113a5.98 5.98 0 0 0-.132.58 3.069 3.069 0 0 0-.057.494c0 .28.062.472.188.574.125.102.343.153.652.153.146 0 .31-.026.494-.077.183-.05.315-.095.399-.134zM9.314 0a9.315 9.315 0 1 0 .002 18.63A9.315 9.315 0 0 0 9.315 0z"/></g></g></g></svg>