<svg xmlns="http://www.w3.org/2000/svg" width="20" height="16"><path d="M1.885 4.757c.248.175.997.696 2.247 1.561a549.3 549.3 0 012.871 2c.073.052.229.163.466.335.237.171.435.31.592.416.157.106.347.225.57.356.223.132.433.23.63.296.197.066.38.099.548.099h.022c.168 0 .35-.033.548-.1a3.31 3.31 0 00.63-.295c.223-.131.413-.25.57-.356.157-.106.354-.245.592-.416.237-.172.393-.283.466-.335l5.129-3.562a5.206 5.206 0 001.337-1.348c.358-.526.537-1.077.537-1.654a1.68 1.68 0 00-.52-1.239A1.694 1.694 0 0017.885 0H1.753C1.191 0 .758.19.455.57.152.95 0 1.425 0 1.995c0 .46.201.959.603 1.496.402.537.83.959 1.282 1.266z"/><path d="M18.544 5.93c-2.396 1.621-4.216 2.882-5.458 3.78-.416.307-.754.546-1.014.718-.26.172-.604.347-1.035.526-.431.18-.833.269-1.206.269H9.81c-.373 0-.775-.09-1.206-.269a6.258 6.258 0 01-1.035-.526c-.26-.172-.598-.411-1.014-.718-.986-.723-2.802-1.984-5.447-3.78A5.806 5.806 0 010 4.975v8.701c0 .483.172.896.515 1.239.343.344.756.515 1.239.515h16.133c.482 0 .895-.171 1.238-.515.343-.344.515-.756.515-1.239v-8.7c-.314.35-.68.668-1.096.953z"/></svg>