<svg xmlns="http://www.w3.org/2000/svg" width="18" height="18"><path d="M7.455 10.547C5.737 8.828 5.349 7.11 5.26 6.422a.617.617 0 01.177-.516l1.39-1.39a.62.62 0 00.088-.768L4.703.31a.62.62 0 00-.805-.226L.345 1.758a.617.617 0 00-.342.616c.186 1.77.958 6.118 5.231 10.392 4.274 4.274 8.622 5.045 10.392 5.23a.617.617 0 00.616-.34l1.674-3.554a.62.62 0 00-.225-.803l-3.437-2.213a.62.62 0 00-.769.087l-1.39 1.39a.617.617 0 01-.516.177c-.688-.087-2.406-.475-4.124-2.193z"/><path d="M14.277 9.62a.62.62 0 01-.62-.62A4.66 4.66 0 009 4.345a.62.62 0 110-1.242A5.903 5.903 0 0114.898 9a.62.62 0 01-.62.62z"/><path d="M17.38 9.62a.62.62 0 01-.62-.62A7.767 7.767 0 009 1.241.62.62 0 019 0a9.01 9.01 0 019 9 .62.62 0 01-.62.62z"/></svg>